<mxfile host="app.diagrams.net" agent="Mozilla/5.0 (Macintosh; Intel Mac OS X 10.15; rv:133.0) Gecko/20100101 Firefox/133.0" version="25.0.3">
  <diagram name="Page-1" id="N-P2L-61dNbGrT4DXvU_">
    <mxGraphModel dx="2037" dy="798" grid="1" gridSize="10" guides="1" tooltips="1" connect="1" arrows="1" fold="1" page="1" pageScale="1" pageWidth="850" pageHeight="1100" math="0" shadow="0">
      <root>
        <mxCell id="0" />
        <mxCell id="1" parent="0" />
        <mxCell id="HdUyzgqLjYm_2tCMWVq2-64" value="" style="strokeWidth=1;shadow=0;dashed=0;align=center;html=1;shape=mxgraph.mockup.containers.browserWindow;rSize=0;strokeColor=#666666;strokeColor2=#008cff;strokeColor3=#c4c4c4;mainText=,;recursiveResize=0;verticalAlign=top;" vertex="1" parent="1">
          <mxGeometry x="1320" y="680" width="800" height="520" as="geometry" />
        </mxCell>
        <mxCell id="HdUyzgqLjYm_2tCMWVq2-65" value="Page 1" style="strokeWidth=1;shadow=0;dashed=0;align=center;html=1;shape=mxgraph.mockup.containers.anchor;fontSize=17;fontColor=#666666;align=left;whiteSpace=wrap;" vertex="1" parent="HdUyzgqLjYm_2tCMWVq2-64">
          <mxGeometry x="60" y="12" width="110" height="26" as="geometry" />
        </mxCell>
        <mxCell id="HdUyzgqLjYm_2tCMWVq2-66" value="https://www.generate-your-story.com/super-admin" style="strokeWidth=1;shadow=0;dashed=0;align=center;html=1;shape=mxgraph.mockup.containers.anchor;rSize=0;fontSize=17;fontColor=#666666;align=left;" vertex="1" parent="HdUyzgqLjYm_2tCMWVq2-64">
          <mxGeometry x="130" y="60" width="250" height="26" as="geometry" />
        </mxCell>
        <mxCell id="HdUyzgqLjYm_2tCMWVq2-77" value="" style="shape=table;startSize=0;container=1;collapsible=0;childLayout=tableLayout;fontSize=16;" vertex="1" parent="HdUyzgqLjYm_2tCMWVq2-64">
          <mxGeometry x="320" y="210" width="310" height="160" as="geometry" />
        </mxCell>
        <mxCell id="HdUyzgqLjYm_2tCMWVq2-78" value="" style="shape=tableRow;horizontal=0;startSize=0;swimlaneHead=0;swimlaneBody=0;strokeColor=inherit;top=0;left=0;bottom=0;right=0;collapsible=0;dropTarget=0;fillColor=none;points=[[0,0.5],[1,0.5]];portConstraint=eastwest;fontSize=16;" vertex="1" parent="HdUyzgqLjYm_2tCMWVq2-77">
          <mxGeometry width="310" height="53" as="geometry" />
        </mxCell>
        <mxCell id="HdUyzgqLjYm_2tCMWVq2-79" value="Org Name" style="shape=partialRectangle;html=1;whiteSpace=wrap;connectable=0;strokeColor=inherit;overflow=hidden;fillColor=none;top=0;left=0;bottom=0;right=0;pointerEvents=1;fontSize=16;" vertex="1" parent="HdUyzgqLjYm_2tCMWVq2-78">
          <mxGeometry width="103" height="53" as="geometry">
            <mxRectangle width="103" height="53" as="alternateBounds" />
          </mxGeometry>
        </mxCell>
        <mxCell id="HdUyzgqLjYm_2tCMWVq2-80" value="User Limit" style="shape=partialRectangle;html=1;whiteSpace=wrap;connectable=0;strokeColor=inherit;overflow=hidden;fillColor=none;top=0;left=0;bottom=0;right=0;pointerEvents=1;fontSize=16;" vertex="1" parent="HdUyzgqLjYm_2tCMWVq2-78">
          <mxGeometry x="103" width="104" height="53" as="geometry">
            <mxRectangle width="104" height="53" as="alternateBounds" />
          </mxGeometry>
        </mxCell>
        <mxCell id="HdUyzgqLjYm_2tCMWVq2-81" value="Active" style="shape=partialRectangle;html=1;whiteSpace=wrap;connectable=0;strokeColor=inherit;overflow=hidden;fillColor=none;top=0;left=0;bottom=0;right=0;pointerEvents=1;fontSize=16;" vertex="1" parent="HdUyzgqLjYm_2tCMWVq2-78">
          <mxGeometry x="207" width="103" height="53" as="geometry">
            <mxRectangle width="103" height="53" as="alternateBounds" />
          </mxGeometry>
        </mxCell>
        <mxCell id="HdUyzgqLjYm_2tCMWVq2-82" value="" style="shape=tableRow;horizontal=0;startSize=0;swimlaneHead=0;swimlaneBody=0;strokeColor=inherit;top=0;left=0;bottom=0;right=0;collapsible=0;dropTarget=0;fillColor=none;points=[[0,0.5],[1,0.5]];portConstraint=eastwest;fontSize=16;" vertex="1" parent="HdUyzgqLjYm_2tCMWVq2-77">
          <mxGeometry y="53" width="310" height="54" as="geometry" />
        </mxCell>
        <mxCell id="HdUyzgqLjYm_2tCMWVq2-83" value="ABC" style="shape=partialRectangle;html=1;whiteSpace=wrap;connectable=0;strokeColor=inherit;overflow=hidden;fillColor=none;top=0;left=0;bottom=0;right=0;pointerEvents=1;fontSize=16;" vertex="1" parent="HdUyzgqLjYm_2tCMWVq2-82">
          <mxGeometry width="103" height="54" as="geometry">
            <mxRectangle width="103" height="54" as="alternateBounds" />
          </mxGeometry>
        </mxCell>
        <mxCell id="HdUyzgqLjYm_2tCMWVq2-84" value="10" style="shape=partialRectangle;html=1;whiteSpace=wrap;connectable=0;strokeColor=inherit;overflow=hidden;fillColor=none;top=0;left=0;bottom=0;right=0;pointerEvents=1;fontSize=16;" vertex="1" parent="HdUyzgqLjYm_2tCMWVq2-82">
          <mxGeometry x="103" width="104" height="54" as="geometry">
            <mxRectangle width="104" height="54" as="alternateBounds" />
          </mxGeometry>
        </mxCell>
        <mxCell id="HdUyzgqLjYm_2tCMWVq2-85" value="Yes" style="shape=partialRectangle;html=1;whiteSpace=wrap;connectable=0;strokeColor=inherit;overflow=hidden;fillColor=none;top=0;left=0;bottom=0;right=0;pointerEvents=1;fontSize=16;" vertex="1" parent="HdUyzgqLjYm_2tCMWVq2-82">
          <mxGeometry x="207" width="103" height="54" as="geometry">
            <mxRectangle width="103" height="54" as="alternateBounds" />
          </mxGeometry>
        </mxCell>
        <mxCell id="HdUyzgqLjYm_2tCMWVq2-86" value="" style="shape=tableRow;horizontal=0;startSize=0;swimlaneHead=0;swimlaneBody=0;strokeColor=inherit;top=0;left=0;bottom=0;right=0;collapsible=0;dropTarget=0;fillColor=none;points=[[0,0.5],[1,0.5]];portConstraint=eastwest;fontSize=16;" vertex="1" parent="HdUyzgqLjYm_2tCMWVq2-77">
          <mxGeometry y="107" width="310" height="53" as="geometry" />
        </mxCell>
        <mxCell id="HdUyzgqLjYm_2tCMWVq2-87" value="DEF" style="shape=partialRectangle;html=1;whiteSpace=wrap;connectable=0;strokeColor=inherit;overflow=hidden;fillColor=none;top=0;left=0;bottom=0;right=0;pointerEvents=1;fontSize=16;" vertex="1" parent="HdUyzgqLjYm_2tCMWVq2-86">
          <mxGeometry width="103" height="53" as="geometry">
            <mxRectangle width="103" height="53" as="alternateBounds" />
          </mxGeometry>
        </mxCell>
        <mxCell id="HdUyzgqLjYm_2tCMWVq2-88" value="100" style="shape=partialRectangle;html=1;whiteSpace=wrap;connectable=0;strokeColor=inherit;overflow=hidden;fillColor=none;top=0;left=0;bottom=0;right=0;pointerEvents=1;fontSize=16;" vertex="1" parent="HdUyzgqLjYm_2tCMWVq2-86">
          <mxGeometry x="103" width="104" height="53" as="geometry">
            <mxRectangle width="104" height="53" as="alternateBounds" />
          </mxGeometry>
        </mxCell>
        <mxCell id="HdUyzgqLjYm_2tCMWVq2-89" value="No" style="shape=partialRectangle;html=1;whiteSpace=wrap;connectable=0;strokeColor=inherit;overflow=hidden;fillColor=none;top=0;left=0;bottom=0;right=0;pointerEvents=1;fontSize=16;" vertex="1" parent="HdUyzgqLjYm_2tCMWVq2-86">
          <mxGeometry x="207" width="103" height="53" as="geometry">
            <mxRectangle width="103" height="53" as="alternateBounds" />
          </mxGeometry>
        </mxCell>
        <mxCell id="HdUyzgqLjYm_2tCMWVq2-90" value="Deactive" style="rounded=1;html=1;shadow=0;dashed=0;whiteSpace=wrap;fontSize=10;fillColor=#E6E6E6;align=center;strokeColor=#B3B3B3;fontColor=#333333;" vertex="1" parent="HdUyzgqLjYm_2tCMWVq2-64">
          <mxGeometry x="630" y="265" width="50" height="50" as="geometry" />
        </mxCell>
        <mxCell id="HdUyzgqLjYm_2tCMWVq2-91" value="Delete" style="rounded=1;html=1;shadow=0;dashed=0;whiteSpace=wrap;fontSize=10;fillColor=#E6E6E6;align=center;strokeColor=#B3B3B3;fontColor=#333333;" vertex="1" parent="HdUyzgqLjYm_2tCMWVq2-64">
          <mxGeometry x="730" y="265" width="50" height="50" as="geometry" />
        </mxCell>
        <mxCell id="HdUyzgqLjYm_2tCMWVq2-92" value="Edit" style="rounded=1;html=1;shadow=0;dashed=0;whiteSpace=wrap;fontSize=10;fillColor=#E6E6E6;align=center;strokeColor=#B3B3B3;fontColor=#333333;" vertex="1" parent="HdUyzgqLjYm_2tCMWVq2-64">
          <mxGeometry x="680" y="265" width="50" height="50" as="geometry" />
        </mxCell>
        <mxCell id="HdUyzgqLjYm_2tCMWVq2-114" style="edgeStyle=orthogonalEdgeStyle;rounded=0;orthogonalLoop=1;jettySize=auto;html=1;entryX=1;entryY=0.25;entryDx=0;entryDy=0;" edge="1" parent="HdUyzgqLjYm_2tCMWVq2-64" source="HdUyzgqLjYm_2tCMWVq2-93" target="HdUyzgqLjYm_2tCMWVq2-107">
          <mxGeometry relative="1" as="geometry" />
        </mxCell>
        <mxCell id="HdUyzgqLjYm_2tCMWVq2-93" value="Activate" style="rounded=1;html=1;shadow=0;dashed=0;whiteSpace=wrap;fontSize=10;fillColor=#E6E6E6;align=center;strokeColor=#B3B3B3;fontColor=#333333;" vertex="1" parent="HdUyzgqLjYm_2tCMWVq2-64">
          <mxGeometry x="630" y="320" width="50" height="50" as="geometry" />
        </mxCell>
        <mxCell id="HdUyzgqLjYm_2tCMWVq2-94" value="Edit" style="rounded=1;html=1;shadow=0;dashed=0;whiteSpace=wrap;fontSize=10;fillColor=#E6E6E6;align=center;strokeColor=#B3B3B3;fontColor=#333333;" vertex="1" parent="HdUyzgqLjYm_2tCMWVq2-64">
          <mxGeometry x="680" y="320" width="50" height="50" as="geometry" />
        </mxCell>
        <mxCell id="HdUyzgqLjYm_2tCMWVq2-111" style="edgeStyle=orthogonalEdgeStyle;rounded=0;orthogonalLoop=1;jettySize=auto;html=1;entryX=1;entryY=0.5;entryDx=0;entryDy=0;" edge="1" parent="HdUyzgqLjYm_2tCMWVq2-64" source="HdUyzgqLjYm_2tCMWVq2-95" target="HdUyzgqLjYm_2tCMWVq2-107">
          <mxGeometry relative="1" as="geometry">
            <Array as="points">
              <mxPoint x="750" y="445" />
            </Array>
          </mxGeometry>
        </mxCell>
        <mxCell id="HdUyzgqLjYm_2tCMWVq2-95" value="Delete" style="rounded=1;html=1;shadow=0;dashed=0;whiteSpace=wrap;fontSize=10;fillColor=#E6E6E6;align=center;strokeColor=#B3B3B3;fontColor=#333333;" vertex="1" parent="HdUyzgqLjYm_2tCMWVq2-64">
          <mxGeometry x="730" y="320" width="50" height="50" as="geometry" />
        </mxCell>
        <mxCell id="HdUyzgqLjYm_2tCMWVq2-96" value="Add Organization" style="rounded=1;html=1;shadow=0;dashed=0;whiteSpace=wrap;fontSize=10;fillColor=#E6E6E6;align=center;strokeColor=#B3B3B3;fontColor=#333333;" vertex="1" parent="HdUyzgqLjYm_2tCMWVq2-64">
          <mxGeometry x="674.5" y="160" width="105.5" height="16.88" as="geometry" />
        </mxCell>
        <mxCell id="HdUyzgqLjYm_2tCMWVq2-101" value="Organization Name" style="fillColor=none;strokeColor=none;html=1;fontSize=11;fontStyle=0;align=left;fontColor=#596780;fontStyle=1;fontSize=11" vertex="1" parent="HdUyzgqLjYm_2tCMWVq2-64">
          <mxGeometry x="70" y="250" width="240" height="20" as="geometry" />
        </mxCell>
        <mxCell id="HdUyzgqLjYm_2tCMWVq2-102" value="Enter organization name" style="rounded=1;arcSize=9;fillColor=#F7F8F9;align=left;spacingLeft=5;strokeColor=#DEE1E6;html=1;strokeWidth=2;fontColor=#596780;fontSize=12;verticalAlign=top;" vertex="1" parent="HdUyzgqLjYm_2tCMWVq2-64">
          <mxGeometry x="70" y="275" width="180" height="25" as="geometry" />
        </mxCell>
        <mxCell id="HdUyzgqLjYm_2tCMWVq2-103" value="Save" style="rounded=1;html=1;shadow=0;dashed=0;whiteSpace=wrap;fontSize=10;fillColor=#E6E6E6;align=center;strokeColor=#B3B3B3;fontColor=#333333;" vertex="1" parent="HdUyzgqLjYm_2tCMWVq2-64">
          <mxGeometry x="190" y="413.1199999999999" width="105.5" height="16.88" as="geometry" />
        </mxCell>
        <mxCell id="HdUyzgqLjYm_2tCMWVq2-104" value="Close" style="rounded=1;html=1;shadow=0;dashed=0;whiteSpace=wrap;fontSize=10;fillColor=#E6E6E6;align=center;strokeColor=#B3B3B3;fontColor=#333333;" vertex="1" parent="HdUyzgqLjYm_2tCMWVq2-64">
          <mxGeometry x="70" y="413.1199999999999" width="105.5" height="16.88" as="geometry" />
        </mxCell>
        <mxCell id="HdUyzgqLjYm_2tCMWVq2-105" value="Enter the users limit" style="rounded=1;arcSize=9;fillColor=#F7F8F9;align=left;spacingLeft=5;strokeColor=#DEE1E6;html=1;strokeWidth=2;fontColor=#596780;fontSize=12;verticalAlign=top;" vertex="1" parent="HdUyzgqLjYm_2tCMWVq2-64">
          <mxGeometry x="70" y="335" width="180" height="25" as="geometry" />
        </mxCell>
        <mxCell id="HdUyzgqLjYm_2tCMWVq2-106" value="No. of Users" style="fillColor=none;strokeColor=none;html=1;fontSize=11;fontStyle=0;align=left;fontColor=#596780;fontStyle=1;fontSize=11" vertex="1" parent="HdUyzgqLjYm_2tCMWVq2-64">
          <mxGeometry x="70" y="310" width="240" height="20" as="geometry" />
        </mxCell>
        <mxCell id="HdUyzgqLjYm_2tCMWVq2-107" value="Confirm" style="swimlane;whiteSpace=wrap;html=1;" vertex="1" parent="HdUyzgqLjYm_2tCMWVq2-64">
          <mxGeometry x="380" y="390" width="250" height="110" as="geometry" />
        </mxCell>
        <mxCell id="HdUyzgqLjYm_2tCMWVq2-108" value="Yes" style="rounded=1;html=1;shadow=0;dashed=0;whiteSpace=wrap;fontSize=10;fillColor=#E6E6E6;align=center;strokeColor=#B3B3B3;fontColor=#333333;" vertex="1" parent="HdUyzgqLjYm_2tCMWVq2-107">
          <mxGeometry x="132.25" y="83.11999999999989" width="105.5" height="16.88" as="geometry" />
        </mxCell>
        <mxCell id="HdUyzgqLjYm_2tCMWVq2-109" value="No" style="rounded=1;html=1;shadow=0;dashed=0;whiteSpace=wrap;fontSize=10;fillColor=#E6E6E6;align=center;strokeColor=#B3B3B3;fontColor=#333333;" vertex="1" parent="HdUyzgqLjYm_2tCMWVq2-107">
          <mxGeometry x="12.25" y="83.11999999999989" width="105.5" height="16.88" as="geometry" />
        </mxCell>
        <mxCell id="HdUyzgqLjYm_2tCMWVq2-110" value="&lt;div align=&quot;left&quot;&gt;Are you sure you want to &lt;b&gt;delete&lt;/b&gt; this organization? &lt;/div&gt;" style="text;html=1;align=left;verticalAlign=middle;whiteSpace=wrap;rounded=0;" vertex="1" parent="HdUyzgqLjYm_2tCMWVq2-107">
          <mxGeometry x="12.25" y="30" width="217.75" height="30" as="geometry" />
        </mxCell>
        <mxCell id="HdUyzgqLjYm_2tCMWVq2-1" value="&lt;div&gt;Frontend App&lt;/div&gt;&lt;div&gt;&lt;br&gt;&lt;/div&gt;&lt;div&gt;&lt;br&gt;&lt;/div&gt;&lt;div&gt;React&lt;br&gt;&lt;/div&gt;" style="rounded=1;whiteSpace=wrap;html=1;horizontal=1;verticalAlign=top;fontStyle=1;fillColor=#d5e8d4;strokeColor=#82b366;" vertex="1" parent="1">
          <mxGeometry x="60" y="100" width="490" height="220" as="geometry" />
        </mxCell>
        <mxCell id="HdUyzgqLjYm_2tCMWVq2-2" value="&lt;div&gt;Backend API&lt;/div&gt;&lt;div&gt;&lt;br&gt;&lt;/div&gt;&lt;div&gt;Python&lt;/div&gt;&lt;div&gt;&lt;br&gt;&lt;/div&gt;&lt;div&gt;&lt;br&gt;&lt;/div&gt;" style="rounded=1;whiteSpace=wrap;html=1;horizontal=1;verticalAlign=top;fontStyle=1;fillColor=#dae8fc;strokeColor=#6c8ebf;" vertex="1" parent="1">
          <mxGeometry x="70" y="390" width="610" height="230" as="geometry" />
        </mxCell>
        <mxCell id="HdUyzgqLjYm_2tCMWVq2-18" style="edgeStyle=orthogonalEdgeStyle;rounded=0;orthogonalLoop=1;jettySize=auto;html=1;entryX=0.25;entryY=1;entryDx=0;entryDy=0;" edge="1" parent="1" source="HdUyzgqLjYm_2tCMWVq2-3" target="HdUyzgqLjYm_2tCMWVq2-16">
          <mxGeometry relative="1" as="geometry">
            <Array as="points">
              <mxPoint x="400" y="860" />
              <mxPoint x="400" y="640" />
              <mxPoint x="470" y="640" />
              <mxPoint x="470" y="530" />
              <mxPoint x="540" y="530" />
            </Array>
          </mxGeometry>
        </mxCell>
        <mxCell id="HdUyzgqLjYm_2tCMWVq2-3" value="&lt;div&gt;ML Model 1&lt;/div&gt;&lt;div&gt;&lt;br&gt;&lt;/div&gt;&lt;div&gt;&lt;br&gt;&lt;/div&gt;&lt;div&gt;Text Content Generation (LLM)&lt;br&gt;&lt;/div&gt;" style="rounded=1;whiteSpace=wrap;html=1;horizontal=1;verticalAlign=top;fontStyle=1;fillColor=#fff2cc;strokeColor=#d6b656;" vertex="1" parent="1">
          <mxGeometry x="80" y="770" width="270" height="180" as="geometry" />
        </mxCell>
        <mxCell id="HdUyzgqLjYm_2tCMWVq2-19" style="edgeStyle=orthogonalEdgeStyle;rounded=0;orthogonalLoop=1;jettySize=auto;html=1;entryX=0.75;entryY=1;entryDx=0;entryDy=0;" edge="1" parent="1" source="HdUyzgqLjYm_2tCMWVq2-4" target="HdUyzgqLjYm_2tCMWVq2-16">
          <mxGeometry relative="1" as="geometry">
            <Array as="points">
              <mxPoint x="550" y="660" />
              <mxPoint x="600" y="660" />
            </Array>
          </mxGeometry>
        </mxCell>
        <mxCell id="HdUyzgqLjYm_2tCMWVq2-4" value="&lt;div&gt;ML Model 2&lt;/div&gt;&lt;div&gt;&lt;br&gt;&lt;/div&gt;&lt;div&gt;&lt;br&gt;&lt;/div&gt;&lt;div&gt;Image Generation (Stable Diffusion)&lt;br&gt;&lt;/div&gt;" style="rounded=1;whiteSpace=wrap;html=1;horizontal=1;verticalAlign=top;fontStyle=1;fillColor=#ffe6cc;strokeColor=#d79b00;" vertex="1" parent="1">
          <mxGeometry x="420" y="770" width="240" height="180" as="geometry" />
        </mxCell>
        <mxCell id="HdUyzgqLjYm_2tCMWVq2-5" value="Concept input" style="rounded=0;whiteSpace=wrap;html=1;" vertex="1" parent="1">
          <mxGeometry x="100" y="180" width="120" height="60" as="geometry" />
        </mxCell>
        <mxCell id="HdUyzgqLjYm_2tCMWVq2-11" style="edgeStyle=orthogonalEdgeStyle;rounded=0;orthogonalLoop=1;jettySize=auto;html=1;" edge="1" parent="1" source="HdUyzgqLjYm_2tCMWVq2-6" target="HdUyzgqLjYm_2tCMWVq2-10">
          <mxGeometry relative="1" as="geometry">
            <Array as="points">
              <mxPoint x="320" y="360" />
              <mxPoint x="180" y="360" />
            </Array>
          </mxGeometry>
        </mxCell>
        <mxCell id="HdUyzgqLjYm_2tCMWVq2-6" value="Generate" style="labelPosition=center;verticalLabelPosition=middle;align=center;html=1;shape=mxgraph.basic.shaded_button;dx=10;fillColor=#E6E6E6;strokeColor=none;whiteSpace=wrap;" vertex="1" parent="1">
          <mxGeometry x="270" y="180" width="100" height="60" as="geometry" />
        </mxCell>
        <mxCell id="HdUyzgqLjYm_2tCMWVq2-7" value="Generated Content" style="rounded=0;whiteSpace=wrap;html=1;" vertex="1" parent="1">
          <mxGeometry x="390" y="180" width="120" height="60" as="geometry" />
        </mxCell>
        <mxCell id="HdUyzgqLjYm_2tCMWVq2-14" style="edgeStyle=orthogonalEdgeStyle;rounded=0;orthogonalLoop=1;jettySize=auto;html=1;" edge="1" parent="1" source="HdUyzgqLjYm_2tCMWVq2-8" target="HdUyzgqLjYm_2tCMWVq2-3">
          <mxGeometry relative="1" as="geometry" />
        </mxCell>
        <mxCell id="HdUyzgqLjYm_2tCMWVq2-8" value="/v1/generate-text" style="rounded=0;whiteSpace=wrap;html=1;" vertex="1" parent="1">
          <mxGeometry x="150" y="540" width="120" height="60" as="geometry" />
        </mxCell>
        <mxCell id="HdUyzgqLjYm_2tCMWVq2-15" style="edgeStyle=orthogonalEdgeStyle;rounded=0;orthogonalLoop=1;jettySize=auto;html=1;" edge="1" parent="1" source="HdUyzgqLjYm_2tCMWVq2-9" target="HdUyzgqLjYm_2tCMWVq2-4">
          <mxGeometry relative="1" as="geometry" />
        </mxCell>
        <mxCell id="HdUyzgqLjYm_2tCMWVq2-9" value="/v1/generate-image" style="rounded=0;whiteSpace=wrap;html=1;" vertex="1" parent="1">
          <mxGeometry x="290" y="540" width="120" height="60" as="geometry" />
        </mxCell>
        <mxCell id="HdUyzgqLjYm_2tCMWVq2-12" style="edgeStyle=orthogonalEdgeStyle;rounded=0;orthogonalLoop=1;jettySize=auto;html=1;" edge="1" parent="1" source="HdUyzgqLjYm_2tCMWVq2-10" target="HdUyzgqLjYm_2tCMWVq2-8">
          <mxGeometry relative="1" as="geometry" />
        </mxCell>
        <mxCell id="HdUyzgqLjYm_2tCMWVq2-13" style="edgeStyle=orthogonalEdgeStyle;rounded=0;orthogonalLoop=1;jettySize=auto;html=1;" edge="1" parent="1" source="HdUyzgqLjYm_2tCMWVq2-10" target="HdUyzgqLjYm_2tCMWVq2-9">
          <mxGeometry relative="1" as="geometry" />
        </mxCell>
        <mxCell id="HdUyzgqLjYm_2tCMWVq2-21" style="edgeStyle=orthogonalEdgeStyle;rounded=0;orthogonalLoop=1;jettySize=auto;html=1;" edge="1" parent="1" source="HdUyzgqLjYm_2tCMWVq2-10" target="HdUyzgqLjYm_2tCMWVq2-7">
          <mxGeometry relative="1" as="geometry">
            <Array as="points">
              <mxPoint x="230" y="380" />
              <mxPoint x="430" y="380" />
            </Array>
          </mxGeometry>
        </mxCell>
        <mxCell id="HdUyzgqLjYm_2tCMWVq2-10" value="/v1/generate" style="rounded=0;whiteSpace=wrap;html=1;" vertex="1" parent="1">
          <mxGeometry x="120" y="450" width="120" height="60" as="geometry" />
        </mxCell>
        <mxCell id="HdUyzgqLjYm_2tCMWVq2-20" style="edgeStyle=orthogonalEdgeStyle;rounded=0;orthogonalLoop=1;jettySize=auto;html=1;" edge="1" parent="1" source="HdUyzgqLjYm_2tCMWVq2-16" target="HdUyzgqLjYm_2tCMWVq2-10">
          <mxGeometry relative="1" as="geometry" />
        </mxCell>
        <mxCell id="HdUyzgqLjYm_2tCMWVq2-16" value="combine-output(fn)" style="rounded=0;whiteSpace=wrap;html=1;" vertex="1" parent="1">
          <mxGeometry x="510" y="440" width="120" height="60" as="geometry" />
        </mxCell>
        <mxCell id="HdUyzgqLjYm_2tCMWVq2-22" value="Basic Architecture Diagram" style="text;html=1;align=center;verticalAlign=middle;whiteSpace=wrap;rounded=0;fontStyle=1;fontSize=23;fillColor=#f5f5f5;fontColor=#333333;strokeColor=#666666;" vertex="1" parent="1">
          <mxGeometry x="60" y="20" width="620" height="30" as="geometry" />
        </mxCell>
        <mxCell id="HdUyzgqLjYm_2tCMWVq2-23" value="" style="strokeWidth=1;shadow=0;dashed=0;align=center;html=1;shape=mxgraph.mockup.containers.browserWindow;rSize=0;strokeColor=#666666;strokeColor2=#008cff;strokeColor3=#c4c4c4;mainText=,;recursiveResize=0;verticalAlign=top;" vertex="1" parent="1">
          <mxGeometry x="1320" y="1920" width="800" height="520" as="geometry" />
        </mxCell>
        <mxCell id="HdUyzgqLjYm_2tCMWVq2-24" value="Page 1" style="strokeWidth=1;shadow=0;dashed=0;align=center;html=1;shape=mxgraph.mockup.containers.anchor;fontSize=17;fontColor=#666666;align=left;whiteSpace=wrap;" vertex="1" parent="HdUyzgqLjYm_2tCMWVq2-23">
          <mxGeometry x="60" y="12" width="110" height="26" as="geometry" />
        </mxCell>
        <mxCell id="HdUyzgqLjYm_2tCMWVq2-25" value="https://www.generate-your-story.com/&amp;lt;org_name&amp;gt;/generate" style="strokeWidth=1;shadow=0;dashed=0;align=center;html=1;shape=mxgraph.mockup.containers.anchor;rSize=0;fontSize=17;fontColor=#666666;align=left;" vertex="1" parent="HdUyzgqLjYm_2tCMWVq2-23">
          <mxGeometry x="130" y="60" width="250" height="26" as="geometry" />
        </mxCell>
        <mxCell id="HdUyzgqLjYm_2tCMWVq2-26" value="Enter your story concept" style="fillColor=none;strokeColor=none;html=1;fontSize=11;fontStyle=0;align=left;fontColor=#596780;fontStyle=1;fontSize=11" vertex="1" parent="HdUyzgqLjYm_2tCMWVq2-23">
          <mxGeometry x="30" y="140" width="240" height="20" as="geometry" />
        </mxCell>
        <mxCell id="HdUyzgqLjYm_2tCMWVq2-27" value="e.g. a suspense thriller story in a village" style="rounded=1;arcSize=9;fillColor=#F7F8F9;align=left;spacingLeft=5;strokeColor=#DEE1E6;html=1;strokeWidth=2;fontColor=#596780;fontSize=12;verticalAlign=top;" vertex="1" parent="HdUyzgqLjYm_2tCMWVq2-23">
          <mxGeometry x="30" y="165" width="280" height="215" as="geometry" />
        </mxCell>
        <mxCell id="HdUyzgqLjYm_2tCMWVq2-28" value="Generate" style="rounded=1;html=1;shadow=0;dashed=0;whiteSpace=wrap;fontSize=10;fillColor=#E6E6E6;align=center;strokeColor=#B3B3B3;fontColor=#333333;" vertex="1" parent="HdUyzgqLjYm_2tCMWVq2-23">
          <mxGeometry x="204.5" y="460" width="105.5" height="16.88" as="geometry" />
        </mxCell>
        <mxCell id="HdUyzgqLjYm_2tCMWVq2-42" value="Clear" style="rounded=1;html=1;shadow=0;dashed=0;whiteSpace=wrap;fontSize=10;fillColor=#E6E6E6;align=center;strokeColor=#B3B3B3;fontColor=#333333;" vertex="1" parent="HdUyzgqLjYm_2tCMWVq2-23">
          <mxGeometry x="80" y="460" width="105.5" height="16.88" as="geometry" />
        </mxCell>
        <mxCell id="HdUyzgqLjYm_2tCMWVq2-44" value="&lt;div&gt;&lt;br&gt;&lt;/div&gt;&lt;div&gt;&lt;br&gt;&lt;/div&gt;&lt;div&gt;&lt;br&gt;&lt;/div&gt;&lt;div&gt;&lt;br&gt;&lt;/div&gt;&lt;div&gt;&lt;br&gt;&lt;/div&gt;&lt;div&gt;&lt;br&gt;&lt;/div&gt;&lt;div&gt;&lt;br&gt;&lt;/div&gt;&lt;div&gt;&lt;br&gt;&lt;/div&gt;&lt;div&gt;&lt;br&gt;&lt;/div&gt;&lt;div&gt;&lt;br&gt;&lt;/div&gt;&lt;div&gt;&lt;br&gt;&lt;/div&gt;&lt;div&gt;Generated Story....&lt;/div&gt;" style="rounded=1;arcSize=9;fillColor=#F7F8F9;align=left;spacingLeft=5;strokeColor=#DEE1E6;html=1;strokeWidth=2;fontColor=#596780;fontSize=12;verticalAlign=top;" vertex="1" parent="HdUyzgqLjYm_2tCMWVq2-23">
          <mxGeometry x="480" y="120" width="300" height="370" as="geometry" />
        </mxCell>
        <mxCell id="HdUyzgqLjYm_2tCMWVq2-45" value="" style="sketch=0;outlineConnect=0;fontColor=#232F3E;gradientColor=none;fillColor=#ED7100;strokeColor=none;dashed=0;verticalLabelPosition=bottom;verticalAlign=top;align=center;html=1;fontSize=12;fontStyle=0;aspect=fixed;pointerEvents=1;shape=mxgraph.aws4.container_registry_image;" vertex="1" parent="HdUyzgqLjYm_2tCMWVq2-23">
          <mxGeometry x="570" y="150" width="110" height="110" as="geometry" />
        </mxCell>
        <mxCell id="HdUyzgqLjYm_2tCMWVq2-46" value="Generate Poster" style="rounded=1;fillColor=#F0F2F5;strokeColor=#D8DCE3;align=left;verticalAlign=middle;fontStyle=0;fontSize=12;labelPosition=right;verticalLabelPosition=middle;spacingLeft=10;html=1;shadow=0;dashed=0" vertex="1" parent="HdUyzgqLjYm_2tCMWVq2-23">
          <mxGeometry x="30" y="400" width="12" height="12" as="geometry" />
        </mxCell>
        <mxCell id="HdUyzgqLjYm_2tCMWVq2-49" value="Generate each page image" style="rounded=1;fillColor=#F0F2F5;strokeColor=#D8DCE3;align=left;verticalAlign=middle;fontStyle=0;fontSize=12;labelPosition=right;verticalLabelPosition=middle;spacingLeft=10;html=1;shadow=0;dashed=0" vertex="1" parent="HdUyzgqLjYm_2tCMWVq2-23">
          <mxGeometry x="30" y="424" width="12" height="12" as="geometry" />
        </mxCell>
        <mxCell id="HdUyzgqLjYm_2tCMWVq2-50" value="" style="strokeWidth=1;shadow=0;dashed=0;align=center;html=1;shape=mxgraph.mockup.containers.browserWindow;rSize=0;strokeColor=#666666;strokeColor2=#008cff;strokeColor3=#c4c4c4;mainText=,;recursiveResize=0;verticalAlign=top;" vertex="1" parent="1">
          <mxGeometry x="1320" y="60" width="800" height="520" as="geometry" />
        </mxCell>
        <mxCell id="HdUyzgqLjYm_2tCMWVq2-51" value="Page 1" style="strokeWidth=1;shadow=0;dashed=0;align=center;html=1;shape=mxgraph.mockup.containers.anchor;fontSize=17;fontColor=#666666;align=left;whiteSpace=wrap;" vertex="1" parent="HdUyzgqLjYm_2tCMWVq2-50">
          <mxGeometry x="60" y="12" width="110" height="26" as="geometry" />
        </mxCell>
        <mxCell id="HdUyzgqLjYm_2tCMWVq2-52" value="https://www.generate-your-story.com/login" style="strokeWidth=1;shadow=0;dashed=0;align=center;html=1;shape=mxgraph.mockup.containers.anchor;rSize=0;fontSize=17;fontColor=#666666;align=left;" vertex="1" parent="HdUyzgqLjYm_2tCMWVq2-50">
          <mxGeometry x="130" y="60" width="250" height="26" as="geometry" />
        </mxCell>
        <mxCell id="HdUyzgqLjYm_2tCMWVq2-53" value="User name" style="fillColor=none;strokeColor=none;html=1;fontSize=11;fontStyle=0;align=left;fontColor=#596780;fontStyle=1;fontSize=11" vertex="1" parent="HdUyzgqLjYm_2tCMWVq2-50">
          <mxGeometry x="480" y="300" width="240" height="20" as="geometry" />
        </mxCell>
        <mxCell id="HdUyzgqLjYm_2tCMWVq2-54" value="Enter your name" style="rounded=1;arcSize=9;fillColor=#F7F8F9;align=left;spacingLeft=5;strokeColor=#DEE1E6;html=1;strokeWidth=2;fontColor=#596780;fontSize=12;verticalAlign=top;" vertex="1" parent="HdUyzgqLjYm_2tCMWVq2-50">
          <mxGeometry x="480" y="325" width="280" height="35" as="geometry" />
        </mxCell>
        <mxCell id="HdUyzgqLjYm_2tCMWVq2-55" value="Login" style="rounded=1;html=1;shadow=0;dashed=0;whiteSpace=wrap;fontSize=10;fillColor=#E6E6E6;align=center;strokeColor=#B3B3B3;fontColor=#333333;" vertex="1" parent="HdUyzgqLjYm_2tCMWVq2-50">
          <mxGeometry x="654.5" y="470" width="105.5" height="16.88" as="geometry" />
        </mxCell>
        <mxCell id="HdUyzgqLjYm_2tCMWVq2-56" value="Signup" style="rounded=1;html=1;shadow=0;dashed=0;whiteSpace=wrap;fontSize=10;fillColor=#E6E6E6;align=center;strokeColor=#B3B3B3;fontColor=#333333;" vertex="1" parent="HdUyzgqLjYm_2tCMWVq2-50">
          <mxGeometry x="530" y="470" width="105.5" height="16.88" as="geometry" />
        </mxCell>
        <mxCell id="HdUyzgqLjYm_2tCMWVq2-61" value="Password" style="fillColor=none;strokeColor=none;html=1;fontSize=11;fontStyle=0;align=left;fontColor=#596780;fontStyle=1;fontSize=11" vertex="1" parent="HdUyzgqLjYm_2tCMWVq2-50">
          <mxGeometry x="480" y="370" width="240" height="20" as="geometry" />
        </mxCell>
        <mxCell id="HdUyzgqLjYm_2tCMWVq2-62" value="Enter password" style="rounded=1;arcSize=9;fillColor=#F7F8F9;align=left;spacingLeft=5;strokeColor=#DEE1E6;html=1;strokeWidth=2;fontColor=#596780;fontSize=12;verticalAlign=top;" vertex="1" parent="HdUyzgqLjYm_2tCMWVq2-50">
          <mxGeometry x="480" y="395" width="280" height="35" as="geometry" />
        </mxCell>
        <mxCell id="HdUyzgqLjYm_2tCMWVq2-63" value="&lt;div&gt;User types:&lt;/div&gt;&lt;div&gt;1. &lt;b&gt;Super Admin(Product owner)&lt;/b&gt;&lt;/div&gt;&lt;div&gt;&amp;nbsp;&amp;nbsp;&amp;nbsp; a. Add/Edit/Delete organizations with user limit&lt;/div&gt;&lt;div&gt;2. &lt;b&gt;Organization Admin&lt;/b&gt;&lt;/div&gt;&lt;div&gt;&amp;nbsp;&amp;nbsp;&amp;nbsp;&amp;nbsp; a. Add/Edit/Delete users upto the provided limit&lt;/div&gt;&lt;div&gt;3. &lt;b&gt;Normal User (under an organization)&lt;/b&gt;&lt;/div&gt;&lt;div&gt;&amp;nbsp;&amp;nbsp;&amp;nbsp; a. Can generate story by providing the story concept&lt;br&gt;&lt;/div&gt;" style="whiteSpace=wrap;html=1;aspect=fixed;verticalAlign=top;align=left;" vertex="1" parent="1">
          <mxGeometry x="820" y="90" width="300" height="300" as="geometry" />
        </mxCell>
        <mxCell id="HdUyzgqLjYm_2tCMWVq2-75" value="Login Screen for all" style="text;html=1;align=left;verticalAlign=middle;whiteSpace=wrap;rounded=0;fontStyle=1;fontSize=15;" vertex="1" parent="1">
          <mxGeometry x="1320" y="20" width="220" height="30" as="geometry" />
        </mxCell>
        <mxCell id="HdUyzgqLjYm_2tCMWVq2-76" value="Super admin landing page" style="text;html=1;align=left;verticalAlign=middle;whiteSpace=wrap;rounded=0;fontStyle=1;fontSize=15;" vertex="1" parent="1">
          <mxGeometry x="1320" y="640" width="220" height="30" as="geometry" />
        </mxCell>
        <mxCell id="HdUyzgqLjYm_2tCMWVq2-99" value="Add / Edit Organization" style="swimlane;whiteSpace=wrap;html=1;" vertex="1" parent="1">
          <mxGeometry x="1380" y="890" width="250" height="250" as="geometry" />
        </mxCell>
        <mxCell id="HdUyzgqLjYm_2tCMWVq2-112" style="edgeStyle=orthogonalEdgeStyle;rounded=0;orthogonalLoop=1;jettySize=auto;html=1;" edge="1" parent="1" source="HdUyzgqLjYm_2tCMWVq2-96" target="HdUyzgqLjYm_2tCMWVq2-99">
          <mxGeometry relative="1" as="geometry" />
        </mxCell>
        <mxCell id="HdUyzgqLjYm_2tCMWVq2-113" style="edgeStyle=orthogonalEdgeStyle;rounded=0;orthogonalLoop=1;jettySize=auto;html=1;entryX=0.63;entryY=-0.002;entryDx=0;entryDy=0;entryPerimeter=0;" edge="1" parent="1" source="HdUyzgqLjYm_2tCMWVq2-92" target="HdUyzgqLjYm_2tCMWVq2-99">
          <mxGeometry relative="1" as="geometry">
            <Array as="points">
              <mxPoint x="2025" y="870" />
              <mxPoint x="1537" y="870" />
            </Array>
          </mxGeometry>
        </mxCell>
        <mxCell id="HdUyzgqLjYm_2tCMWVq2-116" value="" style="strokeWidth=1;shadow=0;dashed=0;align=center;html=1;shape=mxgraph.mockup.containers.browserWindow;rSize=0;strokeColor=#666666;strokeColor2=#008cff;strokeColor3=#c4c4c4;mainText=,;recursiveResize=0;verticalAlign=top;" vertex="1" parent="1">
          <mxGeometry x="1320" y="1300" width="800" height="520" as="geometry" />
        </mxCell>
        <mxCell id="HdUyzgqLjYm_2tCMWVq2-117" value="Page 1" style="strokeWidth=1;shadow=0;dashed=0;align=center;html=1;shape=mxgraph.mockup.containers.anchor;fontSize=17;fontColor=#666666;align=left;whiteSpace=wrap;" vertex="1" parent="HdUyzgqLjYm_2tCMWVq2-116">
          <mxGeometry x="60" y="12" width="110" height="26" as="geometry" />
        </mxCell>
        <mxCell id="HdUyzgqLjYm_2tCMWVq2-118" value="https://www.generate-your-story.com/&amp;lt;org-name&amp;gt;/admin" style="strokeWidth=1;shadow=0;dashed=0;align=center;html=1;shape=mxgraph.mockup.containers.anchor;rSize=0;fontSize=17;fontColor=#666666;align=left;" vertex="1" parent="HdUyzgqLjYm_2tCMWVq2-116">
          <mxGeometry x="130" y="60" width="250" height="26" as="geometry" />
        </mxCell>
        <mxCell id="HdUyzgqLjYm_2tCMWVq2-119" value="" style="shape=table;startSize=0;container=1;collapsible=0;childLayout=tableLayout;fontSize=16;" vertex="1" parent="HdUyzgqLjYm_2tCMWVq2-116">
          <mxGeometry x="320" y="210" width="310" height="160" as="geometry" />
        </mxCell>
        <mxCell id="HdUyzgqLjYm_2tCMWVq2-120" value="" style="shape=tableRow;horizontal=0;startSize=0;swimlaneHead=0;swimlaneBody=0;strokeColor=inherit;top=0;left=0;bottom=0;right=0;collapsible=0;dropTarget=0;fillColor=none;points=[[0,0.5],[1,0.5]];portConstraint=eastwest;fontSize=16;" vertex="1" parent="HdUyzgqLjYm_2tCMWVq2-119">
          <mxGeometry width="310" height="53" as="geometry" />
        </mxCell>
        <mxCell id="HdUyzgqLjYm_2tCMWVq2-121" value="Email" style="shape=partialRectangle;html=1;whiteSpace=wrap;connectable=0;strokeColor=inherit;overflow=hidden;fillColor=none;top=0;left=0;bottom=0;right=0;pointerEvents=1;fontSize=16;" vertex="1" parent="HdUyzgqLjYm_2tCMWVq2-120">
          <mxGeometry width="130" height="53" as="geometry">
            <mxRectangle width="130" height="53" as="alternateBounds" />
          </mxGeometry>
        </mxCell>
        <mxCell id="HdUyzgqLjYm_2tCMWVq2-122" value="Name" style="shape=partialRectangle;html=1;whiteSpace=wrap;connectable=0;strokeColor=inherit;overflow=hidden;fillColor=none;top=0;left=0;bottom=0;right=0;pointerEvents=1;fontSize=16;" vertex="1" parent="HdUyzgqLjYm_2tCMWVq2-120">
          <mxGeometry x="130" width="77" height="53" as="geometry">
            <mxRectangle width="77" height="53" as="alternateBounds" />
          </mxGeometry>
        </mxCell>
        <mxCell id="HdUyzgqLjYm_2tCMWVq2-123" value="Active" style="shape=partialRectangle;html=1;whiteSpace=wrap;connectable=0;strokeColor=inherit;overflow=hidden;fillColor=none;top=0;left=0;bottom=0;right=0;pointerEvents=1;fontSize=16;" vertex="1" parent="HdUyzgqLjYm_2tCMWVq2-120">
          <mxGeometry x="207" width="103" height="53" as="geometry">
            <mxRectangle width="103" height="53" as="alternateBounds" />
          </mxGeometry>
        </mxCell>
        <mxCell id="HdUyzgqLjYm_2tCMWVq2-124" value="" style="shape=tableRow;horizontal=0;startSize=0;swimlaneHead=0;swimlaneBody=0;strokeColor=inherit;top=0;left=0;bottom=0;right=0;collapsible=0;dropTarget=0;fillColor=none;points=[[0,0.5],[1,0.5]];portConstraint=eastwest;fontSize=16;" vertex="1" parent="HdUyzgqLjYm_2tCMWVq2-119">
          <mxGeometry y="53" width="310" height="54" as="geometry" />
        </mxCell>
        <mxCell id="HdUyzgqLjYm_2tCMWVq2-125" value="ABC@gmail.com" style="shape=partialRectangle;html=1;whiteSpace=wrap;connectable=0;strokeColor=inherit;overflow=hidden;fillColor=none;top=0;left=0;bottom=0;right=0;pointerEvents=1;fontSize=16;" vertex="1" parent="HdUyzgqLjYm_2tCMWVq2-124">
          <mxGeometry width="130" height="54" as="geometry">
            <mxRectangle width="130" height="54" as="alternateBounds" />
          </mxGeometry>
        </mxCell>
        <mxCell id="HdUyzgqLjYm_2tCMWVq2-126" value="ABC" style="shape=partialRectangle;html=1;whiteSpace=wrap;connectable=0;strokeColor=inherit;overflow=hidden;fillColor=none;top=0;left=0;bottom=0;right=0;pointerEvents=1;fontSize=16;" vertex="1" parent="HdUyzgqLjYm_2tCMWVq2-124">
          <mxGeometry x="130" width="77" height="54" as="geometry">
            <mxRectangle width="77" height="54" as="alternateBounds" />
          </mxGeometry>
        </mxCell>
        <mxCell id="HdUyzgqLjYm_2tCMWVq2-127" value="Yes" style="shape=partialRectangle;html=1;whiteSpace=wrap;connectable=0;strokeColor=inherit;overflow=hidden;fillColor=none;top=0;left=0;bottom=0;right=0;pointerEvents=1;fontSize=16;" vertex="1" parent="HdUyzgqLjYm_2tCMWVq2-124">
          <mxGeometry x="207" width="103" height="54" as="geometry">
            <mxRectangle width="103" height="54" as="alternateBounds" />
          </mxGeometry>
        </mxCell>
        <mxCell id="HdUyzgqLjYm_2tCMWVq2-128" value="" style="shape=tableRow;horizontal=0;startSize=0;swimlaneHead=0;swimlaneBody=0;strokeColor=inherit;top=0;left=0;bottom=0;right=0;collapsible=0;dropTarget=0;fillColor=none;points=[[0,0.5],[1,0.5]];portConstraint=eastwest;fontSize=16;" vertex="1" parent="HdUyzgqLjYm_2tCMWVq2-119">
          <mxGeometry y="107" width="310" height="53" as="geometry" />
        </mxCell>
        <mxCell id="HdUyzgqLjYm_2tCMWVq2-129" value="DEF@gmail.com" style="shape=partialRectangle;html=1;whiteSpace=wrap;connectable=0;strokeColor=inherit;overflow=hidden;fillColor=none;top=0;left=0;bottom=0;right=0;pointerEvents=1;fontSize=16;" vertex="1" parent="HdUyzgqLjYm_2tCMWVq2-128">
          <mxGeometry width="130" height="53" as="geometry">
            <mxRectangle width="130" height="53" as="alternateBounds" />
          </mxGeometry>
        </mxCell>
        <mxCell id="HdUyzgqLjYm_2tCMWVq2-130" value="DEF" style="shape=partialRectangle;html=1;whiteSpace=wrap;connectable=0;strokeColor=inherit;overflow=hidden;fillColor=none;top=0;left=0;bottom=0;right=0;pointerEvents=1;fontSize=16;" vertex="1" parent="HdUyzgqLjYm_2tCMWVq2-128">
          <mxGeometry x="130" width="77" height="53" as="geometry">
            <mxRectangle width="77" height="53" as="alternateBounds" />
          </mxGeometry>
        </mxCell>
        <mxCell id="HdUyzgqLjYm_2tCMWVq2-131" value="No" style="shape=partialRectangle;html=1;whiteSpace=wrap;connectable=0;strokeColor=inherit;overflow=hidden;fillColor=none;top=0;left=0;bottom=0;right=0;pointerEvents=1;fontSize=16;" vertex="1" parent="HdUyzgqLjYm_2tCMWVq2-128">
          <mxGeometry x="207" width="103" height="53" as="geometry">
            <mxRectangle width="103" height="53" as="alternateBounds" />
          </mxGeometry>
        </mxCell>
        <mxCell id="HdUyzgqLjYm_2tCMWVq2-132" value="Deactive" style="rounded=1;html=1;shadow=0;dashed=0;whiteSpace=wrap;fontSize=10;fillColor=#E6E6E6;align=center;strokeColor=#B3B3B3;fontColor=#333333;" vertex="1" parent="HdUyzgqLjYm_2tCMWVq2-116">
          <mxGeometry x="630" y="265" width="50" height="50" as="geometry" />
        </mxCell>
        <mxCell id="HdUyzgqLjYm_2tCMWVq2-133" value="Delete" style="rounded=1;html=1;shadow=0;dashed=0;whiteSpace=wrap;fontSize=10;fillColor=#E6E6E6;align=center;strokeColor=#B3B3B3;fontColor=#333333;" vertex="1" parent="HdUyzgqLjYm_2tCMWVq2-116">
          <mxGeometry x="730" y="265" width="50" height="50" as="geometry" />
        </mxCell>
        <mxCell id="HdUyzgqLjYm_2tCMWVq2-163" style="edgeStyle=orthogonalEdgeStyle;rounded=0;orthogonalLoop=1;jettySize=auto;html=1;entryX=0.5;entryY=1;entryDx=0;entryDy=0;" edge="1" parent="HdUyzgqLjYm_2tCMWVq2-116" source="HdUyzgqLjYm_2tCMWVq2-134" target="HdUyzgqLjYm_2tCMWVq2-151">
          <mxGeometry relative="1" as="geometry">
            <Array as="points">
              <mxPoint x="705" y="190" />
              <mxPoint x="300" y="190" />
              <mxPoint x="300" y="490" />
              <mxPoint x="160" y="490" />
            </Array>
          </mxGeometry>
        </mxCell>
        <mxCell id="HdUyzgqLjYm_2tCMWVq2-134" value="Edit" style="rounded=1;html=1;shadow=0;dashed=0;whiteSpace=wrap;fontSize=10;fillColor=#E6E6E6;align=center;strokeColor=#B3B3B3;fontColor=#333333;" vertex="1" parent="HdUyzgqLjYm_2tCMWVq2-116">
          <mxGeometry x="680" y="265" width="50" height="50" as="geometry" />
        </mxCell>
        <mxCell id="HdUyzgqLjYm_2tCMWVq2-135" style="edgeStyle=orthogonalEdgeStyle;rounded=0;orthogonalLoop=1;jettySize=auto;html=1;entryX=1;entryY=0.25;entryDx=0;entryDy=0;" edge="1" parent="HdUyzgqLjYm_2tCMWVq2-116" source="HdUyzgqLjYm_2tCMWVq2-136" target="HdUyzgqLjYm_2tCMWVq2-147">
          <mxGeometry relative="1" as="geometry" />
        </mxCell>
        <mxCell id="HdUyzgqLjYm_2tCMWVq2-136" value="Activate" style="rounded=1;html=1;shadow=0;dashed=0;whiteSpace=wrap;fontSize=10;fillColor=#E6E6E6;align=center;strokeColor=#B3B3B3;fontColor=#333333;" vertex="1" parent="HdUyzgqLjYm_2tCMWVq2-116">
          <mxGeometry x="630" y="320" width="50" height="50" as="geometry" />
        </mxCell>
        <mxCell id="HdUyzgqLjYm_2tCMWVq2-137" value="Edit" style="rounded=1;html=1;shadow=0;dashed=0;whiteSpace=wrap;fontSize=10;fillColor=#E6E6E6;align=center;strokeColor=#B3B3B3;fontColor=#333333;" vertex="1" parent="HdUyzgqLjYm_2tCMWVq2-116">
          <mxGeometry x="680" y="320" width="50" height="50" as="geometry" />
        </mxCell>
        <mxCell id="HdUyzgqLjYm_2tCMWVq2-138" style="edgeStyle=orthogonalEdgeStyle;rounded=0;orthogonalLoop=1;jettySize=auto;html=1;entryX=1;entryY=0.5;entryDx=0;entryDy=0;" edge="1" parent="HdUyzgqLjYm_2tCMWVq2-116" source="HdUyzgqLjYm_2tCMWVq2-139" target="HdUyzgqLjYm_2tCMWVq2-147">
          <mxGeometry relative="1" as="geometry">
            <Array as="points">
              <mxPoint x="750" y="445" />
            </Array>
          </mxGeometry>
        </mxCell>
        <mxCell id="HdUyzgqLjYm_2tCMWVq2-139" value="Delete" style="rounded=1;html=1;shadow=0;dashed=0;whiteSpace=wrap;fontSize=10;fillColor=#E6E6E6;align=center;strokeColor=#B3B3B3;fontColor=#333333;" vertex="1" parent="HdUyzgqLjYm_2tCMWVq2-116">
          <mxGeometry x="730" y="320" width="50" height="50" as="geometry" />
        </mxCell>
        <mxCell id="HdUyzgqLjYm_2tCMWVq2-162" style="edgeStyle=orthogonalEdgeStyle;rounded=0;orthogonalLoop=1;jettySize=auto;html=1;entryX=1;entryY=0.25;entryDx=0;entryDy=0;" edge="1" parent="HdUyzgqLjYm_2tCMWVq2-116" source="HdUyzgqLjYm_2tCMWVq2-140" target="HdUyzgqLjYm_2tCMWVq2-156">
          <mxGeometry relative="1" as="geometry" />
        </mxCell>
        <mxCell id="HdUyzgqLjYm_2tCMWVq2-140" value="Add User" style="rounded=1;html=1;shadow=0;dashed=0;whiteSpace=wrap;fontSize=10;fillColor=#E6E6E6;align=center;strokeColor=#B3B3B3;fontColor=#333333;" vertex="1" parent="HdUyzgqLjYm_2tCMWVq2-116">
          <mxGeometry x="674.5" y="160" width="105.5" height="16.88" as="geometry" />
        </mxCell>
        <mxCell id="HdUyzgqLjYm_2tCMWVq2-147" value="Confirm" style="swimlane;whiteSpace=wrap;html=1;" vertex="1" parent="HdUyzgqLjYm_2tCMWVq2-116">
          <mxGeometry x="380" y="390" width="250" height="110" as="geometry" />
        </mxCell>
        <mxCell id="HdUyzgqLjYm_2tCMWVq2-148" value="Yes" style="rounded=1;html=1;shadow=0;dashed=0;whiteSpace=wrap;fontSize=10;fillColor=#E6E6E6;align=center;strokeColor=#B3B3B3;fontColor=#333333;" vertex="1" parent="HdUyzgqLjYm_2tCMWVq2-147">
          <mxGeometry x="132.25" y="83.11999999999989" width="105.5" height="16.88" as="geometry" />
        </mxCell>
        <mxCell id="HdUyzgqLjYm_2tCMWVq2-149" value="No" style="rounded=1;html=1;shadow=0;dashed=0;whiteSpace=wrap;fontSize=10;fillColor=#E6E6E6;align=center;strokeColor=#B3B3B3;fontColor=#333333;" vertex="1" parent="HdUyzgqLjYm_2tCMWVq2-147">
          <mxGeometry x="12.25" y="83.11999999999989" width="105.5" height="16.88" as="geometry" />
        </mxCell>
        <mxCell id="HdUyzgqLjYm_2tCMWVq2-150" value="&lt;div align=&quot;left&quot;&gt;Are you sure you want to &lt;b&gt;delete&lt;/b&gt; this user? &lt;/div&gt;" style="text;html=1;align=left;verticalAlign=middle;whiteSpace=wrap;rounded=0;" vertex="1" parent="HdUyzgqLjYm_2tCMWVq2-147">
          <mxGeometry x="12.25" y="30" width="217.75" height="30" as="geometry" />
        </mxCell>
        <mxCell id="HdUyzgqLjYm_2tCMWVq2-151" value="Add / Edit User" style="swimlane;whiteSpace=wrap;html=1;" vertex="1" parent="HdUyzgqLjYm_2tCMWVq2-116">
          <mxGeometry x="35" y="140" width="250" height="310" as="geometry" />
        </mxCell>
        <mxCell id="HdUyzgqLjYm_2tCMWVq2-156" value="Email Address" style="fillColor=none;strokeColor=none;html=1;fontSize=11;fontStyle=0;align=left;fontColor=#596780;fontStyle=1;fontSize=11" vertex="1" parent="HdUyzgqLjYm_2tCMWVq2-151">
          <mxGeometry x="10" y="30" width="240" height="20" as="geometry" />
        </mxCell>
        <mxCell id="HdUyzgqLjYm_2tCMWVq2-157" value="Enter user email id" style="rounded=1;arcSize=9;fillColor=#F7F8F9;align=left;spacingLeft=5;strokeColor=#DEE1E6;html=1;strokeWidth=2;fontColor=#596780;fontSize=12;verticalAlign=top;" vertex="1" parent="HdUyzgqLjYm_2tCMWVq2-151">
          <mxGeometry x="10" y="55" width="180" height="25" as="geometry" />
        </mxCell>
        <mxCell id="HdUyzgqLjYm_2tCMWVq2-158" value="Save" style="rounded=1;html=1;shadow=0;dashed=0;whiteSpace=wrap;fontSize=10;fillColor=#E6E6E6;align=center;strokeColor=#B3B3B3;fontColor=#333333;" vertex="1" parent="HdUyzgqLjYm_2tCMWVq2-151">
          <mxGeometry x="130" y="269.9999999999999" width="105.5" height="16.88" as="geometry" />
        </mxCell>
        <mxCell id="HdUyzgqLjYm_2tCMWVq2-159" value="Close" style="rounded=1;html=1;shadow=0;dashed=0;whiteSpace=wrap;fontSize=10;fillColor=#E6E6E6;align=center;strokeColor=#B3B3B3;fontColor=#333333;" vertex="1" parent="HdUyzgqLjYm_2tCMWVq2-151">
          <mxGeometry x="10" y="269.9999999999999" width="105.5" height="16.88" as="geometry" />
        </mxCell>
        <mxCell id="HdUyzgqLjYm_2tCMWVq2-164" value="Full Name" style="fillColor=none;strokeColor=none;html=1;fontSize=11;fontStyle=0;align=left;fontColor=#596780;fontStyle=1;fontSize=11" vertex="1" parent="HdUyzgqLjYm_2tCMWVq2-151">
          <mxGeometry x="10" y="90" width="240" height="20" as="geometry" />
        </mxCell>
        <mxCell id="HdUyzgqLjYm_2tCMWVq2-165" value="Enter full name" style="rounded=1;arcSize=9;fillColor=#F7F8F9;align=left;spacingLeft=5;strokeColor=#DEE1E6;html=1;strokeWidth=2;fontColor=#596780;fontSize=12;verticalAlign=top;" vertex="1" parent="HdUyzgqLjYm_2tCMWVq2-151">
          <mxGeometry x="10" y="115" width="180" height="25" as="geometry" />
        </mxCell>
        <mxCell id="HdUyzgqLjYm_2tCMWVq2-166" value="Mobile Number" style="fillColor=none;strokeColor=none;html=1;fontSize=11;fontStyle=0;align=left;fontColor=#596780;fontStyle=1;fontSize=11" vertex="1" parent="HdUyzgqLjYm_2tCMWVq2-151">
          <mxGeometry x="10" y="150" width="240" height="20" as="geometry" />
        </mxCell>
        <mxCell id="HdUyzgqLjYm_2tCMWVq2-167" value="Enter mobile number" style="rounded=1;arcSize=9;fillColor=#F7F8F9;align=left;spacingLeft=5;strokeColor=#DEE1E6;html=1;strokeWidth=2;fontColor=#596780;fontSize=12;verticalAlign=top;" vertex="1" parent="HdUyzgqLjYm_2tCMWVq2-151">
          <mxGeometry x="10" y="175" width="180" height="25" as="geometry" />
        </mxCell>
        <mxCell id="HdUyzgqLjYm_2tCMWVq2-115" value="Organization admin landing page" style="text;html=1;align=left;verticalAlign=middle;whiteSpace=wrap;rounded=0;fontStyle=1;fontSize=15;" vertex="1" parent="1">
          <mxGeometry x="1320" y="1260" width="280" height="30" as="geometry" />
        </mxCell>
        <mxCell id="HdUyzgqLjYm_2tCMWVq2-168" value="Normal User (Organization user) landing page" style="text;html=1;align=left;verticalAlign=middle;whiteSpace=wrap;rounded=0;fontStyle=1;fontSize=15;" vertex="1" parent="1">
          <mxGeometry x="1320" y="1880" width="420" height="30" as="geometry" />
        </mxCell>
      </root>
    </mxGraphModel>
  </diagram>
</mxfile>
